<mxfile host="app.diagrams.net" agent="Mozilla/5.0 (Windows NT 10.0; Win64; x64) AppleWebKit/537.36 (KHTML, like Gecko) Chrome/129.0.0.0 Safari/537.36" version="24.8.0">
  <diagram id="prtHgNgQTEPvFCAcTncT" name="Page-1">
    <mxGraphModel dx="673" dy="729" grid="1" gridSize="10" guides="1" tooltips="1" connect="1" arrows="1" fold="1" page="1" pageScale="1" pageWidth="827" pageHeight="1169" math="0" shadow="0">
      <root>
        <mxCell id="0" />
        <mxCell id="1" parent="0" />
        <mxCell id="q5KfZVLiSaWMwuXySlKD-36" style="edgeStyle=orthogonalEdgeStyle;rounded=0;orthogonalLoop=1;jettySize=auto;html=1;exitX=1;exitY=0.5;exitDx=0;exitDy=0;entryX=0;entryY=0.5;entryDx=0;entryDy=0;" parent="1" source="q5KfZVLiSaWMwuXySlKD-10" target="q5KfZVLiSaWMwuXySlKD-11" edge="1">
          <mxGeometry relative="1" as="geometry" />
        </mxCell>
        <mxCell id="q5KfZVLiSaWMwuXySlKD-10" value="Scanner" style="rounded=0;whiteSpace=wrap;html=1;" parent="1" vertex="1">
          <mxGeometry x="30" y="160" width="120" height="60" as="geometry" />
        </mxCell>
        <mxCell id="q5KfZVLiSaWMwuXySlKD-20" style="edgeStyle=orthogonalEdgeStyle;rounded=0;orthogonalLoop=1;jettySize=auto;html=1;exitX=1;exitY=0.5;exitDx=0;exitDy=0;" parent="1" source="q5KfZVLiSaWMwuXySlKD-11" target="q5KfZVLiSaWMwuXySlKD-12" edge="1">
          <mxGeometry relative="1" as="geometry" />
        </mxCell>
        <mxCell id="q5KfZVLiSaWMwuXySlKD-11" value="Parser" style="rounded=0;whiteSpace=wrap;html=1;" parent="1" vertex="1">
          <mxGeometry x="240" y="160" width="120" height="60" as="geometry" />
        </mxCell>
        <mxCell id="q5KfZVLiSaWMwuXySlKD-12" value="Compiler" style="rounded=0;whiteSpace=wrap;html=1;" parent="1" vertex="1">
          <mxGeometry x="450" y="160" width="120" height="60" as="geometry" />
        </mxCell>
        <mxCell id="q5KfZVLiSaWMwuXySlKD-13" value="Std Lib" style="rounded=0;whiteSpace=wrap;html=1;" parent="1" vertex="1">
          <mxGeometry x="240" y="390" width="120" height="60" as="geometry" />
        </mxCell>
        <mxCell id="q5KfZVLiSaWMwuXySlKD-14" value="BVM" style="rounded=0;whiteSpace=wrap;html=1;" parent="1" vertex="1">
          <mxGeometry x="239" y="280" width="120" height="60" as="geometry" />
        </mxCell>
        <mxCell id="q5KfZVLiSaWMwuXySlKD-15" value="Dev Tools" style="rounded=0;whiteSpace=wrap;html=1;" parent="1" vertex="1">
          <mxGeometry x="30" y="390" width="120" height="60" as="geometry" />
        </mxCell>
        <mxCell id="q5KfZVLiSaWMwuXySlKD-28" style="edgeStyle=orthogonalEdgeStyle;rounded=0;orthogonalLoop=1;jettySize=auto;html=1;entryX=0.5;entryY=0;entryDx=0;entryDy=0;" parent="1" source="q5KfZVLiSaWMwuXySlKD-16" target="q5KfZVLiSaWMwuXySlKD-10" edge="1">
          <mxGeometry relative="1" as="geometry" />
        </mxCell>
        <mxCell id="q5KfZVLiSaWMwuXySlKD-29" style="edgeStyle=orthogonalEdgeStyle;rounded=0;orthogonalLoop=1;jettySize=auto;html=1;exitX=0.5;exitY=1;exitDx=0;exitDy=0;entryX=0.5;entryY=0;entryDx=0;entryDy=0;" parent="1" source="q5KfZVLiSaWMwuXySlKD-16" target="q5KfZVLiSaWMwuXySlKD-11" edge="1">
          <mxGeometry relative="1" as="geometry" />
        </mxCell>
        <mxCell id="q5KfZVLiSaWMwuXySlKD-30" style="edgeStyle=orthogonalEdgeStyle;rounded=0;orthogonalLoop=1;jettySize=auto;html=1;exitX=1;exitY=0.5;exitDx=0;exitDy=0;entryX=0.5;entryY=0;entryDx=0;entryDy=0;" parent="1" source="q5KfZVLiSaWMwuXySlKD-16" target="q5KfZVLiSaWMwuXySlKD-12" edge="1">
          <mxGeometry relative="1" as="geometry" />
        </mxCell>
        <mxCell id="q5KfZVLiSaWMwuXySlKD-16" value="Docs" style="rounded=0;whiteSpace=wrap;html=1;" parent="1" vertex="1">
          <mxGeometry x="240" y="30" width="120" height="60" as="geometry" />
        </mxCell>
        <mxCell id="q5KfZVLiSaWMwuXySlKD-17" value="Community" style="rounded=0;whiteSpace=wrap;html=1;" parent="1" vertex="1">
          <mxGeometry x="450" y="390" width="120" height="60" as="geometry" />
        </mxCell>
        <mxCell id="q5KfZVLiSaWMwuXySlKD-31" style="edgeStyle=orthogonalEdgeStyle;rounded=0;orthogonalLoop=1;jettySize=auto;html=1;exitX=1;exitY=0.5;exitDx=0;exitDy=0;" parent="1" source="q5KfZVLiSaWMwuXySlKD-18" target="q5KfZVLiSaWMwuXySlKD-14" edge="1">
          <mxGeometry relative="1" as="geometry" />
        </mxCell>
        <mxCell id="q5KfZVLiSaWMwuXySlKD-18" value="Debugger" style="rounded=0;whiteSpace=wrap;html=1;" parent="1" vertex="1">
          <mxGeometry x="30" y="280" width="120" height="60" as="geometry" />
        </mxCell>
        <mxCell id="q5KfZVLiSaWMwuXySlKD-21" style="edgeStyle=orthogonalEdgeStyle;rounded=0;orthogonalLoop=1;jettySize=auto;html=1;exitX=0.5;exitY=1;exitDx=0;exitDy=0;entryX=0.5;entryY=0;entryDx=0;entryDy=0;" parent="1" source="q5KfZVLiSaWMwuXySlKD-12" target="q5KfZVLiSaWMwuXySlKD-14" edge="1">
          <mxGeometry relative="1" as="geometry">
            <mxPoint x="260" y="260" as="targetPoint" />
            <Array as="points">
              <mxPoint x="510" y="250" />
              <mxPoint x="300" y="250" />
            </Array>
          </mxGeometry>
        </mxCell>
        <mxCell id="q5KfZVLiSaWMwuXySlKD-44" style="edgeStyle=orthogonalEdgeStyle;rounded=0;orthogonalLoop=1;jettySize=auto;html=1;exitX=0;exitY=0.5;exitDx=0;exitDy=0;" parent="1" source="q5KfZVLiSaWMwuXySlKD-43" edge="1">
          <mxGeometry relative="1" as="geometry">
            <mxPoint x="360" y="310" as="targetPoint" />
          </mxGeometry>
        </mxCell>
        <mxCell id="q5KfZVLiSaWMwuXySlKD-43" value="GC" style="rounded=0;whiteSpace=wrap;html=1;" parent="1" vertex="1">
          <mxGeometry x="450" y="280" width="120" height="60" as="geometry" />
        </mxCell>
        <mxCell id="_qx0CJ4FmlX8rKsbl99r-33" value="Rust" style="swimlane;whiteSpace=wrap;html=1;" vertex="1" parent="1">
          <mxGeometry x="30" y="700" width="540" height="375" as="geometry" />
        </mxCell>
        <mxCell id="_qx0CJ4FmlX8rKsbl99r-78" style="edgeStyle=orthogonalEdgeStyle;rounded=0;orthogonalLoop=1;jettySize=auto;html=1;exitX=1;exitY=0.5;exitDx=0;exitDy=0;entryX=0;entryY=0.5;entryDx=0;entryDy=0;" edge="1" parent="1" source="_qx0CJ4FmlX8rKsbl99r-80" target="_qx0CJ4FmlX8rKsbl99r-83">
          <mxGeometry relative="1" as="geometry" />
        </mxCell>
        <mxCell id="_qx0CJ4FmlX8rKsbl99r-79" value="char" style="edgeLabel;html=1;align=center;verticalAlign=middle;resizable=0;points=[];" vertex="1" connectable="0" parent="_qx0CJ4FmlX8rKsbl99r-78">
          <mxGeometry x="-0.1714" y="2" relative="1" as="geometry">
            <mxPoint as="offset" />
          </mxGeometry>
        </mxCell>
        <mxCell id="_qx0CJ4FmlX8rKsbl99r-80" value="Source Code" style="rounded=0;whiteSpace=wrap;html=1;" vertex="1" parent="1">
          <mxGeometry x="40" y="757" width="120" height="60" as="geometry" />
        </mxCell>
        <mxCell id="_qx0CJ4FmlX8rKsbl99r-81" style="edgeStyle=orthogonalEdgeStyle;rounded=0;orthogonalLoop=1;jettySize=auto;html=1;exitX=1;exitY=0.5;exitDx=0;exitDy=0;entryX=0;entryY=0.5;entryDx=0;entryDy=0;" edge="1" parent="1" source="_qx0CJ4FmlX8rKsbl99r-83" target="_qx0CJ4FmlX8rKsbl99r-90">
          <mxGeometry relative="1" as="geometry" />
        </mxCell>
        <mxCell id="_qx0CJ4FmlX8rKsbl99r-82" value="Token" style="edgeLabel;html=1;align=center;verticalAlign=middle;resizable=0;points=[];" vertex="1" connectable="0" parent="_qx0CJ4FmlX8rKsbl99r-81">
          <mxGeometry x="-0.05" y="2" relative="1" as="geometry">
            <mxPoint as="offset" />
          </mxGeometry>
        </mxCell>
        <mxCell id="_qx0CJ4FmlX8rKsbl99r-83" value="Scanner" style="rounded=0;whiteSpace=wrap;html=1;" vertex="1" parent="1">
          <mxGeometry x="240" y="757" width="120" height="60" as="geometry" />
        </mxCell>
        <mxCell id="_qx0CJ4FmlX8rKsbl99r-84" style="edgeStyle=orthogonalEdgeStyle;rounded=0;orthogonalLoop=1;jettySize=auto;html=1;exitX=0.5;exitY=1;exitDx=0;exitDy=0;entryX=0.5;entryY=0;entryDx=0;entryDy=0;" edge="1" parent="1" source="_qx0CJ4FmlX8rKsbl99r-90" target="_qx0CJ4FmlX8rKsbl99r-95">
          <mxGeometry relative="1" as="geometry" />
        </mxCell>
        <mxCell id="_qx0CJ4FmlX8rKsbl99r-85" value="Stmt" style="edgeLabel;html=1;align=center;verticalAlign=middle;resizable=0;points=[];" vertex="1" connectable="0" parent="_qx0CJ4FmlX8rKsbl99r-84">
          <mxGeometry x="-0.0444" y="5" relative="1" as="geometry">
            <mxPoint x="1" as="offset" />
          </mxGeometry>
        </mxCell>
        <mxCell id="_qx0CJ4FmlX8rKsbl99r-86" style="edgeStyle=orthogonalEdgeStyle;rounded=0;orthogonalLoop=1;jettySize=auto;html=1;exitX=0.5;exitY=1;exitDx=0;exitDy=0;entryX=0.5;entryY=0;entryDx=0;entryDy=0;" edge="1" parent="1" source="_qx0CJ4FmlX8rKsbl99r-90" target="_qx0CJ4FmlX8rKsbl99r-98">
          <mxGeometry relative="1" as="geometry" />
        </mxCell>
        <mxCell id="_qx0CJ4FmlX8rKsbl99r-87" value="Stmt" style="edgeLabel;html=1;align=center;verticalAlign=middle;resizable=0;points=[];" vertex="1" connectable="0" parent="_qx0CJ4FmlX8rKsbl99r-86">
          <mxGeometry x="-0.0769" y="3" relative="1" as="geometry">
            <mxPoint as="offset" />
          </mxGeometry>
        </mxCell>
        <mxCell id="_qx0CJ4FmlX8rKsbl99r-88" style="edgeStyle=orthogonalEdgeStyle;rounded=0;orthogonalLoop=1;jettySize=auto;html=1;exitX=0.5;exitY=1;exitDx=0;exitDy=0;entryX=1;entryY=0.5;entryDx=0;entryDy=0;" edge="1" parent="1" source="_qx0CJ4FmlX8rKsbl99r-90" target="_qx0CJ4FmlX8rKsbl99r-94">
          <mxGeometry relative="1" as="geometry" />
        </mxCell>
        <mxCell id="_qx0CJ4FmlX8rKsbl99r-89" value="Stmt" style="edgeLabel;html=1;align=center;verticalAlign=middle;resizable=0;points=[];" vertex="1" connectable="0" parent="_qx0CJ4FmlX8rKsbl99r-88">
          <mxGeometry x="-0.1083" y="-2" relative="1" as="geometry">
            <mxPoint as="offset" />
          </mxGeometry>
        </mxCell>
        <mxCell id="_qx0CJ4FmlX8rKsbl99r-90" value="Parser" style="rounded=0;whiteSpace=wrap;html=1;" vertex="1" parent="1">
          <mxGeometry x="440" y="757" width="120" height="60" as="geometry" />
        </mxCell>
        <mxCell id="_qx0CJ4FmlX8rKsbl99r-91" style="edgeStyle=orthogonalEdgeStyle;rounded=0;orthogonalLoop=1;jettySize=auto;html=1;exitX=0.5;exitY=0;exitDx=0;exitDy=0;entryX=0.5;entryY=1;entryDx=0;entryDy=0;" edge="1" parent="1" source="_qx0CJ4FmlX8rKsbl99r-94" target="_qx0CJ4FmlX8rKsbl99r-98">
          <mxGeometry relative="1" as="geometry" />
        </mxCell>
        <mxCell id="_qx0CJ4FmlX8rKsbl99r-92" style="edgeStyle=orthogonalEdgeStyle;rounded=0;orthogonalLoop=1;jettySize=auto;html=1;exitX=0;exitY=0.5;exitDx=0;exitDy=0;entryX=0.5;entryY=1;entryDx=0;entryDy=0;" edge="1" parent="1" source="_qx0CJ4FmlX8rKsbl99r-94" target="_qx0CJ4FmlX8rKsbl99r-95">
          <mxGeometry relative="1" as="geometry" />
        </mxCell>
        <mxCell id="_qx0CJ4FmlX8rKsbl99r-93" value="info" style="edgeLabel;html=1;align=center;verticalAlign=middle;resizable=0;points=[];" vertex="1" connectable="0" parent="_qx0CJ4FmlX8rKsbl99r-92">
          <mxGeometry x="-0.3727" y="2" relative="1" as="geometry">
            <mxPoint as="offset" />
          </mxGeometry>
        </mxCell>
        <mxCell id="_qx0CJ4FmlX8rKsbl99r-94" value="Resolver" style="rounded=0;whiteSpace=wrap;html=1;" vertex="1" parent="1">
          <mxGeometry x="340" y="987" width="120" height="60" as="geometry" />
        </mxCell>
        <mxCell id="_qx0CJ4FmlX8rKsbl99r-95" value="Interpreter" style="rounded=0;whiteSpace=wrap;html=1;" vertex="1" parent="1">
          <mxGeometry x="140" y="877" width="120" height="60" as="geometry" />
        </mxCell>
        <mxCell id="_qx0CJ4FmlX8rKsbl99r-96" style="edgeStyle=orthogonalEdgeStyle;rounded=0;orthogonalLoop=1;jettySize=auto;html=1;exitX=0;exitY=0.5;exitDx=0;exitDy=0;entryX=1;entryY=0.5;entryDx=0;entryDy=0;" edge="1" parent="1" source="_qx0CJ4FmlX8rKsbl99r-98" target="_qx0CJ4FmlX8rKsbl99r-95">
          <mxGeometry relative="1" as="geometry" />
        </mxCell>
        <mxCell id="_qx0CJ4FmlX8rKsbl99r-97" value="type" style="edgeLabel;html=1;align=center;verticalAlign=middle;resizable=0;points=[];" vertex="1" connectable="0" parent="_qx0CJ4FmlX8rKsbl99r-96">
          <mxGeometry x="-0.075" y="3" relative="1" as="geometry">
            <mxPoint as="offset" />
          </mxGeometry>
        </mxCell>
        <mxCell id="_qx0CJ4FmlX8rKsbl99r-98" value="TypeInferrer" style="rounded=0;whiteSpace=wrap;html=1;" vertex="1" parent="1">
          <mxGeometry x="340" y="877" width="120" height="60" as="geometry" />
        </mxCell>
        <mxCell id="_qx0CJ4FmlX8rKsbl99r-99" value="Debug" style="rounded=0;whiteSpace=wrap;html=1;" vertex="1" parent="1">
          <mxGeometry x="38" y="982" width="120" height="60" as="geometry" />
        </mxCell>
      </root>
    </mxGraphModel>
  </diagram>
</mxfile>
